<?xml version="1.0" encoding="utf-8"?>
<!-- Generator: Adobe Illustrator 23.0.0, SVG Export Plug-In . SVG Version: 6.00 Build 0) -->
<svg version="1.1" id="图层_1" xmlns="http://www.w3.org/2000/svg" xmlns:xlink="http://www.w3.org/1999/xlink" x="0px" y="0px" viewBox="0 0 200 200" style="enable-background:new 0 0 200 200;" xml:space="preserve">
	<path d="M200,183.5H0v-139h31.2l0.6-28.1h135.9v28.1H200L200,183.5L200,183.5z M9.8,173.8h180.5V54.3h-32.3v-28H41.3
	l-0.6,28.1h-31V173.8L9.8,173.8z" />
	<path d="M68.9,44.5h98.8v9.8H68.9V44.5z M117.9,151.8H82.1v-19.3H62.8V96.7h19.3V77.4h35.8v19.3h19.3v35.8h-19.3V151.8z
	 M91.8,142h16.3v-19.3h19.3v-16.3h-19.3V87.1H91.8v19.3H72.6v16.3h19.3V142z" />
</svg>
