<?xml version="1.0" standalone="no"?><!DOCTYPE svg PUBLIC "-//W3C//DTD SVG 1.1//EN" "http://www.w3.org/Graphics/SVG/1.1/DTD/svg11.dtd"><svg t="1559533097817" class="icon" style="" viewBox="0 0 1026 1024" version="1.1" xmlns="http://www.w3.org/2000/svg" p-id="7084" xmlns:xlink="http://www.w3.org/1999/xlink" width="128.25" height="128"><defs><style type="text/css"></style></defs><path d="M328.937154 418.991182c5.417989 9.029982 32.507937 48.761905 160.733686 232.973545l1.805997 1.805996c7.223986 9.029982 19.865961 16.253968 30.70194 16.253968 12.641975 0 25.283951-5.417989 30.70194-16.253968 55.985891-79.463845 158.92769-231.167549 164.345679-234.779541l1.805996-1.805997c21.671958-36.119929 34.313933-77.657848 34.313933-119.195767 0-126.419753-102.941799-229.361552-229.361552-229.361552S292.817225 167.957672 292.817225 294.377425c0 43.343915 12.641975 86.687831 36.119929 124.613757zM520.37278 122.80776c93.911817 0 171.569665 77.657848 171.569665 171.569665 0 30.70194-9.029982 59.597884-25.28395 88.493827-5.417989 9.029982-90.299824 130.031746-146.285715 209.495591-43.343915-61.40388-135.449735-195.047619-146.285714-207.689594-18.059965-27.089947-27.089947-57.791887-27.089947-90.299824 3.611993-93.911817 79.463845-171.569665 173.375661-171.569665z m0 299.795415c70.433862 0 126.419753-57.791887 126.419753-126.419753s-57.791887-126.419753-126.419753-126.419754c-70.433862 0-126.419753 57.791887-126.419753 126.419754s55.985891 126.419753 126.419753 126.419753z m0-196.853616c37.925926 0 68.627866 30.70194 68.627866 68.627866 0 39.731922-30.70194 68.627866-68.627866 68.627866-37.925926 0-68.627866-30.70194-68.627866-68.627866s30.70194-68.627866 68.627866-68.627866z m487.619048 594.17284l-142.673721-375.647267H747.928336l-46.955908 59.597884h128.225749l130.031746 348.557319c7.223986 10.835979 9.029982 23.477954 3.611993 34.313933-5.417989 10.835979-16.253968 16.253968-27.089947 16.253968H88.739623c-12.641975 0-23.477954-5.417989-27.089947-16.253968-5.417989-10.835979-1.805996-21.671958 3.611993-34.313933l128.22575-350.363316h146.285714l-48.761905-59.597883h-133.643739l-142.673721 377.453263c-14.447972 30.70194-21.671958 63.209877-5.41799 92.10582 16.253968 30.70194 46.955908 48.761905 81.269842 48.761904h847.012345c34.313933 0 65.015873-18.059965 79.463845-48.761904 14.447972-30.70194 7.223986-61.40388-9.029982-92.10582z" p-id="7085"></path></svg>