<?xml version="1.0" standalone="no"?><!DOCTYPE svg PUBLIC "-//W3C//DTD SVG 1.1//EN" "http://www.w3.org/Graphics/SVG/1.1/DTD/svg11.dtd"><svg t="1569295753612" class="icon" viewBox="0 0 1024 1024" version="1.1" xmlns="http://www.w3.org/2000/svg" p-id="903" xmlns:xlink="http://www.w3.org/1999/xlink" width="128" height="128"><defs><style type="text/css"></style></defs><path d="M432 480h-352c-25.6 0-48-22.4-48-48v-352C32 54.4 54.4 32 80 32h352c25.6 0 48 22.4 48 48v352c0 25.6-22.4 48-48 48zM944 480h-352c-25.6 0-48-22.4-48-48v-352c0-25.6 22.4-48 48-48h352c25.6 0 48 22.4 48 48v352c0 25.6-22.4 48-48 48zM432 992h-352c-25.6 0-48-22.4-48-48v-352c0-25.6 22.4-48 48-48h352c25.6 0 48 22.4 48 48v352c0 25.6-22.4 48-48 48zM979.2 713.6h-57.6l-9.6-19.2 41.6-41.6c6.4-6.4 6.4-12.8 0-19.2L896 576c-6.4-6.4-12.8-6.4-19.2 0l-41.6 41.6-19.2-9.6v-57.6c0-6.4-6.4-12.8-12.8-12.8h-80c-6.4 0-12.8 6.4-12.8 12.8V608l-19.2 9.6-41.6-41.6c-6.4-6.4-12.8-6.4-19.2 0l-57.6 57.6c-6.4 6.4-6.4 12.8 0 19.2l41.6 41.6-9.6 19.2h-57.6c-6.4 0-12.8 6.4-12.8 12.8v80c0 6.4 6.4 12.8 12.8 12.8h57.6l9.6 19.2-41.6 41.6c-6.4 6.4-6.4 12.8 0 19.2l57.6 57.6c6.4 6.4 12.8 6.4 19.2 0l41.6-41.6 19.2 9.6v57.6c0 6.4 6.4 12.8 12.8 12.8h80c6.4 0 12.8-6.4 12.8-12.8v-57.6l19.2-9.6 41.6 41.6c6.4 6.4 12.8 6.4 19.2 0l57.6-57.6c6.4-6.4 6.4-12.8 0-19.2l-41.6-41.6 9.6-19.2h57.6c6.4 0 12.8-6.4 12.8-12.8v-80c0-6.4-6.4-12.8-12.8-12.8z m-163.2 112c-35.2 25.6-80 19.2-105.6-12.8-25.6-35.2-19.2-80 12.8-105.6 35.2-25.6 80-19.2 105.6 12.8 25.6 35.2 19.2 83.2-12.8 105.6z" p-id="904"></path></svg>