<?xml version="1.0" standalone="no"?><!DOCTYPE svg PUBLIC "-//W3C//DTD SVG 1.1//EN" "http://www.w3.org/Graphics/SVG/1.1/DTD/svg11.dtd"><svg t="1569296073908" class="icon" viewBox="0 0 1024 1024" version="1.1" xmlns="http://www.w3.org/2000/svg" p-id="4062" xmlns:xlink="http://www.w3.org/1999/xlink" width="128" height="128"><defs><style type="text/css"></style></defs><path d="M749.653333 716.8a287.658667 287.658667 0 0 1-248.32 143.36A287.786667 287.786667 0 0 1 253.013333 716.8a40.96 40.96 0 1 1 70.826667-40.96 205.824 205.824 0 0 0 177.536 102.4 205.397333 205.397333 0 0 0 177.365333-102.4 40.96 40.96 0 1 1 70.954667 40.96m112.554667-512H124.245333A81.664 81.664 0 0 0 42.666667 286.378667v655.914666C42.666667 987.392 79.232 1024 124.245333 1024h737.962667a81.749333 81.749333 0 0 0 81.578667-81.664V286.421333A81.706667 81.706667 0 0 0 862.208 204.8M493.226667 81.92a123.050667 123.050667 0 0 1 122.88 122.88h81.92c0-112.938667-91.861333-204.8-204.8-204.8a205.013333 205.013333 0 0 0-204.8 204.8h81.92a123.050667 123.050667 0 0 1 122.88-122.88" p-id="4063"></path></svg>