<?xml version="1.0" standalone="no"?><!DOCTYPE svg PUBLIC "-//W3C//DTD SVG 1.1//EN" "http://www.w3.org/Graphics/SVG/1.1/DTD/svg11.dtd"><svg t="1572595300498" class="icon" viewBox="0 0 1829 1024" version="1.1" xmlns="http://www.w3.org/2000/svg" p-id="8626" xmlns:xlink="http://www.w3.org/1999/xlink" width="228.625" height="128"><defs><style type="text/css"></style></defs><path d="M1046.881499 41.00352C1162.894921 69.676544 1261.762341 141.811419 1325.226862 239.157102 1416.391241 296.347867 1509.897143 376.653678 1604.32128 485.821294 1604.32128 485.821294 1504.401993 614.79307 1340.707621 721.782272 1260.797001 863.407616 1108.950089 959.052581 934.743186 959.052581 776.630418 959.052581 636.941678 880.264631 552.731282 759.823579 449.577838 698.940562 343.211886 607.46752 235.778341 476.384183 235.778341 476.384183 360.475867 322.643968 559.873975 216.669257 624.17408 129.653321 718.039771 65.82901 826.645138 40.02048 379.198683 95.607003 66.822802 480.746862 66.822802 480.746862 950.786267 1559.315163 1777.21088 492.543269 1777.21088 492.543269 1522.450432 197.997568 1273.037678 71.573797 1046.881499 41.00352L1046.881499 41.00352ZM559.873975 216.667282C502.718537 294.014171 468.908178 389.661184 468.908178 493.217646 468.908178 592.381879 499.914971 684.287488 552.731282 759.823579 636.941678 880.264631 776.630418 959.052581 934.743186 959.052581 1108.950089 959.052581 1260.798976 863.409518 1340.707621 721.782272 1378.809929 654.253861 1400.576219 576.283794 1400.576219 493.217646 1400.576219 399.481637 1372.866487 312.229742 1325.226862 239.157102 1261.762341 141.811419 1162.894921 69.678519 1046.881499 41.00352 1010.959579 32.124782 973.407744 27.382638 934.743186 27.382638 897.525614 27.382638 861.338258 31.772818 826.645138 40.018505 718.041746 65.827035 624.176055 129.651346 559.873975 216.667282L559.873975 216.667282ZM932.777106 872.54389C725.451849 872.54389 557.381047 704.47499 557.381047 497.147758 557.381047 289.820526 725.449874 121.751698 932.777106 121.751698 1140.104338 121.751698 1308.173239 289.820526 1308.173239 497.147758 1308.173239 704.47499 1140.102363 872.54389 932.777106 872.54389L932.777106 872.54389ZM956.369847 314.427831C948.774985 314.427831 941.286254 314.885925 933.923328 315.750985 934.375497 321.10848 934.619282 326.525001 934.619282 332.000475 934.619282 429.664622 861.159351 510.153289 766.479653 521.26347 774.725339 618.915913 856.584338 695.600201 956.367872 695.600201 1061.626953 695.600201 1146.954094 610.275035 1146.954094 505.013979 1146.956069 399.756873 1061.628928 314.427831 956.369847 314.427831L956.369847 314.427831Z" p-id="8627" ></path></svg>