<?xml version="1.0" standalone="no"?><!DOCTYPE svg PUBLIC "-//W3C//DTD SVG 1.1//EN" "http://www.w3.org/Graphics/SVG/1.1/DTD/svg11.dtd"><svg t="1572590517001" class="icon" viewBox="0 0 1024 1024" version="1.1" xmlns="http://www.w3.org/2000/svg" p-id="5632" xmlns:xlink="http://www.w3.org/1999/xlink" width="128" height="128"><defs><style type="text/css"></style></defs><path d="M267.018 646.087h-62.584c-23.336 0-42.239 19.218-42.239 42.952v63.64c0 23.723 18.903 42.941 42.239 42.941h62.584c23.333 0 42.239-19.218 42.239-42.941v-63.64c0-23.733-18.906-42.952-42.239-42.952z m183.604 0h-62.488c-23.333 0-42.332 19.218-42.332 42.952v63.64c0 23.723 18.998 42.941 42.332 42.941h62.488c23.338 0 42.236-19.218 42.236-42.941v-63.64c0-23.733-18.898-42.952-42.236-42.952z m0-186.695h-62.488c-23.333 0-42.332 19.218-42.332 42.945v63.64c0 23.631 18.998 42.948 42.332 42.948h62.488c23.338 0 42.236-19.317 42.236-42.949v-63.64c0-23.726-18.898-42.944-42.236-42.944z m183.7 0h-62.58c-23.34 0-42.238 19.218-42.238 42.945v63.64c0 23.631 18.897 42.948 42.239 42.948h62.579c23.338 0 42.238-19.317 42.238-42.949v-63.64c0-23.726-18.901-42.944-42.238-42.944z m0 186.695h-62.58c-23.34 0-42.238 19.218-42.238 42.952v63.64c0 23.723 18.897 42.941 42.239 42.941h62.579c23.338 0 42.238-19.218 42.238-42.941v-63.64c0-23.733-18.901-42.952-42.238-42.952z m183.607 0h-62.586c-23.239 0-42.236 19.218-42.236 42.952v63.64c0 23.723 18.997 42.941 42.236 42.941h62.586c23.34 0 42.238-19.218 42.238-42.941v-63.64c0-23.733-18.899-42.952-42.238-42.952z m0-186.695h-62.586c-23.239 0-42.236 19.218-42.236 42.945v63.64c0 23.631 18.997 42.948 42.236 42.948h62.586c23.34 0 42.238-19.317 42.238-42.949v-63.64c0-23.726-18.899-42.944-42.238-42.944zM952.934 79.72h-45.226c-17.457 0-31.535 14.414-31.535 32.159v75.505c0 55.791-44.551 100.998-99.323 100.998-54.872 0-99.326-45.207-99.326-100.998v-75.505c0-17.745-14.176-32.159-31.632-32.159h-263.16c-17.45 0-31.628 14.414-31.628 32.159v75.505c0 55.791-44.455 100.998-99.223 100.998-54.874 0-99.329-45.207-99.329-100.998v-75.505c0-17.745-14.174-32.159-31.628-32.159H71.07C31.824 79.72 0 112.074 0 151.985V951.73C0 991.636 31.824 1024 71.07 1024h881.864c39.245 0 71.066-32.365 71.066-72.271V151.984c0-39.91-31.82-72.264-71.066-72.264zM929.31 895.543c0 0.684 0 1.373-0.1 2.06-0.963 16.275-13.883 29.216-29.895 30.004-0.579 0.1-1.063 0.1-1.638 0.1-0.48 0-1.064 0-1.542-0.1H127.967c-0.578 0.1-1.061 0.1-1.64 0.1-0.485 0-1.062 0-1.637-0.1-16.105-0.79-29.028-14.022-29.897-30.396V367.315c0.869-17.063 14.658-30.492 31.534-30.492h771.35c16.782 0 30.57 13.234 31.533 30 0.1 0.688 0.1 1.375 0.1 2.06 0 0.783 0 1.375-0.1 2.057v522.54c0.1 0.69 0.1 1.375 0.1 2.063z m-152.942-652.56c30.278 0 54.673-24.91 54.673-55.599h0.387V48.434C827.958 21.08 805.008 0 777.234 0c-30.184 0-54.672 24.906-54.672 55.596h-0.392v138.946c3.477 27.357 26.426 48.44 54.198 48.44z m-524.486 0c30.18 0 54.675-24.91 54.675-55.599h0.385V48.434C303.472 21.08 280.517 0 252.744 0c-30.278 0-54.673 24.906-54.673 55.596h-0.387v138.946c3.376 27.357 26.426 48.44 54.198 48.44z" p-id="5633"></path></svg>