<?xml version="1.0" encoding="utf-8"?>
<!-- Generator: Adobe Illustrator 23.0.0, SVG Export Plug-In . SVG Version: 6.00 Build 0)  -->
<svg version="1.1" id="图层_1" xmlns="http://www.w3.org/2000/svg" xmlns:xlink="http://www.w3.org/1999/xlink" x="0px" y="0px"
	 viewBox="0 0 200 200" style="enable-background:new 0 0 200 200;" xml:space="preserve">
<path d="M142.9,3H64.5C33,3,7.4,28.6,7.4,60.1v19.4c0,3.1,2.5,5.6,5.6,5.6s5.6-2.5,5.6-5.6V60.1c0-25.3,20.6-45.9,45.9-45.9h78.5
	c25.3,0,45.9,20.6,45.9,45.9v78.5c0,25.3-20.6,45.9-45.9,45.9H64.5c-25.3,0-45.9-20.6-45.9-45.9v-23.3h22.7c2.2,0,4.2-1.3,5.1-3.3
	l5.1-11.2l21,51.1c0.9,2.2,3,3.5,5.4,3.5c2.3-0.1,4.4-1.6,5.1-3.8L110,69.6l11.4,40.4c0.7,2.4,2.9,4.1,5.4,4.1h43.9
	c3.1,0,5.6-2.5,5.6-5.6c0-3.1-2.5-5.6-5.6-5.6H131L115.8,49c-0.7-2.4-2.8-4-5.2-4.1c-2.4-0.1-4.6,1.5-5.4,3.8L77,133.6L56.8,84.5
	C56,82.4,54,81.1,51.7,81c-2.2-0.1-4.3,1.2-5.2,3.3l-8.9,19.7H5.6c-3.1,0-5.6,2.5-5.6,5.6s2.5,5.6,5.6,5.6h1.8v23.3
	c0,31.5,25.6,57.1,57.1,57.1h78.5c31.5,0,57.1-25.6,57.1-57.1V60.1C200,28.6,174.4,3,142.9,3L142.9,3z"/>
</svg>
