<?xml version="1.0" encoding="utf-8"?>
<!-- Generator: Adobe Illustrator 23.0.0, SVG Export Plug-In . SVG Version: 6.00 Build 0)  -->
<svg version="1.1" id="图层_1" xmlns="http://www.w3.org/2000/svg" xmlns:xlink="http://www.w3.org/1999/xlink" x="0px" y="0px"
	 viewBox="0 0 200 200" style="enable-background:new 0 0 200 200;" xml:space="preserve">
<path d="M78.3,124.9h-10c-6.9,0-12.5-5.6-12.5-12.5V96.3c0-6.9,5.6-12.5,12.5-12.5h10c6.9,0,12.5,5.6,12.5,12.5v16.2
	C90.8,119.3,85.2,124.9,78.3,124.9L78.3,124.9z M68.4,93.8c-1.4,0-2.5,1.1-2.5,2.5v16.2c0,1.4,1.1,2.5,2.5,2.5h10
	c1.4,0,2.5-1.1,2.5-2.5V96.3c0-1.4-1.1-2.5-2.5-2.5H68.4z M48.4,35.2c-9.6,0-17.4-7.8-17.4-17.4S38.8,0.3,48.4,0.3
	s17.4,7.8,17.4,17.4S58,35.2,48.4,35.2z M48.4,10.3c-4.1,0-7.5,3.4-7.5,7.5s3.4,7.5,7.5,7.5s7.5-3.4,7.5-7.5S52.5,10.3,48.4,10.3z
	 M161.3,199.7c-13.1,0-23.7-10.6-23.7-23.7c0-13.1,10.6-23.7,23.7-23.7c13.1,0,23.7,10.6,23.7,23.7
	C185,189.1,174.2,199.7,161.3,199.7z M161.3,162.3c-7.6,0-13.7,6.1-13.7,13.7s6.1,13.7,13.7,13.7c7.6,0,13.7-6.1,13.7-13.7
	S168.8,162.3,161.3,162.3z"/>
<path d="M95.3,199.7c-14.8,0-26.9-12.1-26.9-26.9v-52.8c0-2.7,2.2-5,5-5c2.7,0,5,2.2,5,5v52.8c0,9.3,7.6,16.9,16.9,16.9
	s16.9-7.6,16.9-16.9c0-2.7,2.2-5,5-5c2.7,0,5,2.2,5,5C122.3,187.6,110.2,199.7,95.3,199.7L95.3,199.7z"/>
<path d="M117.3,177.7c-2.7,0-5-2.2-5-5V142c0-14.8,12.1-26.9,26.9-26.9c14.8,0,26.9,12.1,26.9,26.9v15.3c0,2.7-2.2,5-5,5
	c-2.7,0-5-2.2-5-5v-15.4c0-9.3-7.6-16.9-16.9-16.9c-9.3,0-16.9,7.6-16.9,16.9v30.8C122.3,175.5,120.1,177.7,117.3,177.7L117.3,177.7
	z M58.6,109.5c-4.5,0-13.2-1-19.6-7.7c-8-8.7-24-41.9-24-62.7c0-23.2,10.6-26.3,20.8-26.3c2.7,0,5,2.2,5,5s-2.2,5-5,5
	c-6.1,0-10.8,0-10.8,16.3c0,18.6,15.2,49.2,21.4,55.8c5,5.5,13.7,4.5,13.8,4.5c2.7-0.4,5.2,1.6,5.5,4.4c0.4,2.7-1.6,5.2-4.4,5.6
	C61.4,109.3,60.3,109.5,58.6,109.5z M98.3,35.2c-9.6,0-17.4-7.8-17.4-17.4S88.7,0.3,98.3,0.3s17.4,7.8,17.4,17.4
	S107.8,35.2,98.3,35.2z M98.3,10.3c-4.1,0-7.5,3.4-7.5,7.5s3.4,7.5,7.5,7.5s7.5-3.4,7.5-7.5S102.4,10.3,98.3,10.3z"/>
<path d="M87.9,109.5c-1.6,0-2.6-0.1-2.9-0.1c-2.7-0.4-4.6-2.9-4.4-5.6c0.4-2.7,2.9-4.6,5.6-4.4c0,0,8.7,1,13.7-4.5
	c6.2-6.7,21.4-37.2,21.4-55.9c0-16.3-4.9-16.3-10.8-16.3c-2.7,0-5-2.2-5-5s2.2-5,5-5c10.3,0,20.8,3.1,20.8,26.3
	c0,20.8-16.1,53.9-24,62.7C101.2,108.5,92.4,109.5,87.9,109.5z"/>
</svg>
