<svg t="1558929328257" class="icon" style="" viewBox="0 0 1024 1024" version="1.1" xmlns="http://www.w3.org/2000/svg" width="128" height="128"><path d="M364.373333 723.882667C394.24 913.664 460.714667 1024 512 1024c51.313778 0 117.788444-110.364444 147.626667-300.117333H364.373333zM748.316444 512c0 44.231111-2.190222 88.746667-6.200888 132.551111h264.021333c11.292444-42.325333 17.891556-86.641778 17.891555-132.551111 0-45.909333-6.599111-90.225778-17.92-132.551111h-263.964444c3.982222 43.804444 6.172444 88.433778 6.172444 132.551111z m-73.102222 0c0-47.132444-2.275556-91.136-6.087111-132.551111H354.901333a1445.603556 1445.603556 0 0 0 0 265.102222h314.197334c3.811556-41.415111 6.115556-85.418667 6.115555-132.551111z m57.713778-211.882667h245.105778A513.052444 513.052444 0 0 0 640.284444 15.502222c43.975111 68.835556 75.491556 170.666667 92.586667 284.615111zM291.100444 723.882667H45.994667c63.317333 139.662222 186.88 245.589333 337.692444 284.615111-44.088889-68.835556-75.576889-170.581333-92.586667-284.615111z m441.799112 0c-17.095111 113.948444-48.611556 215.779556-92.586667 284.615111a512.540444 512.540444 0 0 0 337.692444-284.615111h-245.105777zM17.891556 379.448889A512.682667 512.682667 0 0 0 0 512c0 45.909333 6.599111 90.225778 17.92 132.551111h263.964444A1464.604444 1464.604444 0 0 1 275.740444 512c0-44.231111 2.190222-88.746667 6.200889-132.551111H17.891556z m273.208888-79.331556c17.095111-113.948444 48.497778-215.779556 92.586667-284.615111A512.853333 512.853333 0 0 0 45.994667 300.117333h245.105777z m368.412445 0C629.76 110.336 563.313778 0 512 0c-51.313778 0-117.788444 110.364444-147.626667 300.117333h295.139556z"></path></svg>