<?xml version="1.0" encoding="utf-8"?>
<!-- Generator: Adobe Illustrator 23.0.0, SVG Export Plug-In . SVG Version: 6.00 Build 0)  -->
<svg version="1.1" id="图层_1" xmlns="http://www.w3.org/2000/svg" xmlns:xlink="http://www.w3.org/1999/xlink" x="0px" y="0px"
	 viewBox="0 0 200 200" style="enable-background:new 0 0 200 200;" xml:space="preserve">
<path d="M39.1,0h121.9C182.5,0,200,17.5,200,39.1v121.9c0,21.6-17.5,39.1-39.1,39.1H39.1C17.5,200,0,182.5,0,160.9V39.1
	C0,17.5,17.5,0,39.1,0L39.1,0z M39.1,20C28.5,20,20,28.5,20,39.1v121.9c0,10.5,8.5,19.1,19.1,19.1h121.9c10.5,0,19.1-8.5,19.1-19.1
	V39.1c0-10.5-8.5-19.1-19.1-19.1H39.1z M78,91.8L64.3,124H44.9c-5.5,0-10-4.5-10-10s4.5-10,10-10h6.2l28.4-66.8l25.7,71l20.8-35.4
	l17.9,31.2h17.3c5.5,0,10,4.5,10,10s-4.5,10-10,10h-28.9l-6.5-11.3L100.8,155L78,91.8L78,91.8z"/>
</svg>
