<?xml version="1.0" encoding="utf-8"?>
<!-- Generator: Adobe Illustrator 23.0.0, SVG Export Plug-In . SVG Version: 6.00 Build 0)  -->
<svg version="1.1" id="图层_1" xmlns="http://www.w3.org/2000/svg" xmlns:xlink="http://www.w3.org/1999/xlink" x="0px" y="0px"
	 viewBox="0 0 200 200" style="enable-background:new 0 0 200 200;" xml:space="preserve">
<path d="M179.1,1.1c5.5,0,9.9,4.4,9.9,9.9c0,0,0,0,0,0v178c0,5.5-4.4,9.9-9.9,9.9c0,0,0,0,0,0H40.7c-5.5,0-9.9-4.4-9.9-9.9l0,0
	v-19.8H11v-19.8h19.8v-19.8H11v-19.8h19.8V90.1H11V70.3h19.8V50.6H11V30.8h19.8V11c0-5.5,4.4-9.9,9.9-9.9
	C40.7,1.1,179.1,1.1,179.1,1.1z M169.2,20.9H50.6v158.2h118.7V20.9z M119.8,60.4v29.7h29.7v19.8h-29.7l0,29.7H100l0-29.7H70.3V90.1
	H100V60.4H119.8z"/>
</svg>
