<?xml version="1.0" encoding="utf-8"?>
<!-- Generator: Adobe Illustrator 23.0.0, SVG Export Plug-In . SVG Version: 6.00 Build 0)  -->
<svg version="1.1" id="图层_1" xmlns="http://www.w3.org/2000/svg" xmlns:xlink="http://www.w3.org/1999/xlink" x="0px" y="0px"
	 viewBox="0 0 200 200" style="enable-background:new 0 0 200 200;" xml:space="preserve">
<path d="M21,24L95.7,1.4c2.8-0.9,5.8-0.9,8.7,0L178.9,24c6.3,1.9,10.6,7.7,10.6,14.3v81.5c0,37.3-30,63.6-87.6,79.3l-2,0.5l-2-0.5
	c-57.6-15.7-87.6-42.1-87.6-79.3V38.3C10.4,31.7,14.7,25.9,21,24z M25.4,119.8c0,28.7,24.1,50.2,74.6,64.4
	c50.5-14.2,74.6-35.7,74.6-64.4V38.3L100,15.7L25.4,38.3V119.8z M66.6,67.6c9.1-9.1,22.9-10.4,33.4-4.1c10.5-6.3,24.4-4.9,33.4,4.1
	c10.1,10.1,10.7,26.1,1.7,36.9l0.1,0.1L100,139.7l-35.2-35.2l0.1-0.1C55.9,93.7,56.5,77.7,66.6,67.6z M100,118.6l23.3-23.3l0.4-0.4
	c4.1-4.9,3.8-12.2-0.8-16.7c-4.1-4.1-10.3-4.8-15.2-1.9l-7.7,4.6l-7.7-4.6c-4.8-2.9-11.1-2.2-15.2,1.9c-4.6,4.6-4.9,11.8-0.8,16.7
	l0.4,0.4C76.7,95.4,100,118.6,100,118.6z"/>
</svg>
