<?xml version="1.0" standalone="no"?><!DOCTYPE svg PUBLIC "-//W3C//DTD SVG 1.1//EN" "http://www.w3.org/Graphics/SVG/1.1/DTD/svg11.dtd"><svg t="1572595554216" class="icon" viewBox="0 0 1024 1024" version="1.1" xmlns="http://www.w3.org/2000/svg" p-id="11647" xmlns:xlink="http://www.w3.org/1999/xlink" width="128" height="128"><defs><style type="text/css"></style></defs><path d="M983.795 958.473H436.384c-14.442 0-26.111-11.778-26.111-26.333v-61.217c0-123.994 74.219-233.986 188.991-280.206l6.884-2.778-5.886-4.666c-43.445-34.442-68.443-85.768-68.443-140.99 0-98.881 79.998-179.324 178.213-179.324 98.213 0 178.103 80.442 178.103 179.324 0 55.222-24.89 106.548-68.333 140.99l-5.887 4.666 6.89 2.778c114.772 46.221 188.987 156.213 188.987 280.206v61.217c0.222 14.554-11.557 26.333-25.997 26.333zM467.268 391.509c-9.776 62.773 0.222 130.547 40.221 178.543l0.045 0.036c2.949 2.359 2.247 7.024-1.266 8.411-90.879 36.717-139.136 114.815-160.254 206.716-2.948 12.83-14.336 21.941-27.501 22.04-3.275 0.025-5.013 0.006-5.013 0.006-145.991-28.222-260.318-141.55-291.648-289.209-20.664-97.66-2.555-197.762 51.11-281.867 53.665-84.109 136.325-141.994 232.651-162.994 25.667-5.555 52-8.441 77.997-8.441 107.55 0 212.541 49.666 282.203 133.103l0.001 0.002c4.365 7.508-0.489 16.995-9.128 17.883-102.695 10.559-177.982 102.67-189.418 175.771zM359.555 241.518c-14.082 0-25.498 11.416-25.498 25.498v169.043l-97.727 98.473c-9.986 10.062-8.729 26.64 2.66 35.081 9.289 6.885 22.225 5.904 30.37-2.303l115.693-116.581V267.016c-0.001-14.082-11.416-25.498-25.498-25.498z m25.497 0" p-id="11648" ></path></svg>