<?xml version="1.0" encoding="utf-8"?>
<!-- Generator: Adobe Illustrator 23.0.0, SVG Export Plug-In . SVG Version: 6.00 Build 0)  -->
<svg version="1.1" id="图层_1" xmlns="http://www.w3.org/2000/svg" xmlns:xlink="http://www.w3.org/1999/xlink" x="0px" y="0px"
	 viewBox="0 0 200 200" style="enable-background:new 0 0 200 200;" xml:space="preserve">
<path d="M100,2.4c-9.8,0-16.8,6.9-20.2,15.6H22v179.4h156V18h-57.8C116.8,9.3,109.8,2.4,100,2.4z M100,18c4.3,0,7.8,3.5,7.8,7.8v7.8
	h23.4v15.6H68.8V33.6h23.4v-7.8C92.2,21.4,95.7,18,100,18z M37.6,33.6h15.6v31.2h93.6V33.6h15.6v148.2H37.6V33.6z M92.2,88.2v23.4
	H68.8v15.6h23.4v23.4h15.6v-23.4h23.4v-15.6h-23.4V88.2H92.2z"/>
</svg>
