<?xml version="1.0" standalone="no"?><!DOCTYPE svg PUBLIC "-//W3C//DTD SVG 1.1//EN" "http://www.w3.org/Graphics/SVG/1.1/DTD/svg11.dtd"><svg t="1578645464977" class="icon" viewBox="0 0 1024 1024" version="1.1" xmlns="http://www.w3.org/2000/svg" p-id="4284" xmlns:xlink="http://www.w3.org/1999/xlink" width="128" height="128"><defs><style type="text/css"></style></defs><path d="M974.08 686.72h-70.592V497.024c0-26.816-21.76-48.704-48.704-48.704H545.856V307.2H616.32c26.816 0 48.704-21.76 48.704-48.768V49.728c0-26.88-21.76-48.768-48.704-48.768H407.616c-26.816 0-48.704 21.76-48.704 48.768v208.704c0 26.88 21.76 48.768 48.704 48.768h70.528v141.184H169.088c-26.816 0-48.704 21.76-48.704 48.704v189.696H49.856c-26.88 0-48.768 21.76-48.768 48.704v208.768c0 26.88 21.76 48.704 48.768 48.704H258.56c26.88 0 48.768-21.76 48.768-48.704V735.36c0-26.816-21.76-48.704-48.768-48.704H188.032v-170.88h290.24v171.008H407.744c-26.88 0-48.704 21.76-48.704 48.704v208.768c0 26.88 21.76 48.704 48.704 48.704h208.768c26.816 0 48.704-21.76 48.704-48.704V735.36c0-26.816-21.76-48.704-48.704-48.704H545.92v-170.88h290.176v171.008h-70.528c-26.816 0-48.704 21.76-48.704 48.704v208.768c0 26.88 21.76 48.704 48.704 48.704h208.768c26.88 0 48.768-21.76 48.768-48.704V735.36a49.28 49.28 0 0 0-49.152-48.64zM239.68 754.432v170.88H68.8v-170.88h170.944z m186.88-514.752v-170.88h170.88v170.88h-170.88z m170.88 514.752v170.88h-170.88v-170.88h170.88z m357.696 170.88h-170.944v-170.88h170.944v170.88z" p-id="4285"></path></svg>