<?xml version="1.0" encoding="utf-8"?>
<!-- Generator: Adobe Illustrator 23.0.0, SVG Export Plug-In . SVG Version: 6.00 Build 0) -->
<svg version="1.1" id="图层_1" xmlns="http://www.w3.org/2000/svg" xmlns:xlink="http://www.w3.org/1999/xlink" x="0px" y="0px" viewBox="0 0 200 200" style="enable-background:new 0 0 200 200;" xml:space="preserve">
	<path d="M106.3,12.5H36.6c-6.4,0-11.6,5.2-11.6,11.6v164.3c0,6.4,5.2,11.6,11.6,11.6h114.3c6.4,0,11.6-5.2,11.6-11.6
	V68.7c0-3.4-2.8-6.3-6.3-6.3c-3.5,0-6.3,2.8-6.3,6.3v118.8H37.5V25h68.8c3.4,0,6.3-2.8,6.3-6.3S109.7,12.5,106.3,12.5 M93.7,137.5
	H56.2c-3.4,0-6.3,2.8-6.3,6.3c0,3.4,2.8,6.3,6.3,6.3h37.5c3.4,0,6.3-2.8,6.3-6.3C100,140.3,97.2,137.5,93.7,137.5 M93.7,162.5H56.2
	c-3.4,0-6.3,2.8-6.3,6.3c0,3.4,2.8,6.3,6.3,6.3h37.5c3.4,0,6.3-2.8,6.3-6.3C100,165.3,97.2,162.5,93.7,162.5 M151.1,0
	c-1.6,0-3.2,0.6-4.4,1.8L99.3,49.2c-0.8,0.8-1.4,1.8-1.7,3l-6.5,24.1c-1.1,4.1,2,7.8,6,7.8c0.5,0,1.1-0.1,1.6-0.2l24.1-6.5
	c1.1-0.3,2.2-0.9,3-1.7l47.4-47.4c2.4-2.5,2.4-6.4,0-8.8L155.5,1.8C154.3,0.6,152.7,0,151.1,0 M151.1,15.1l8.8,8.8l-41.8,41.8
	L106,69l3.2-12.1L151.1,15.1" />
</svg>
