<?xml version="1.0" standalone="no"?><!DOCTYPE svg PUBLIC "-//W3C//DTD SVG 1.1//EN" "http://www.w3.org/Graphics/SVG/1.1/DTD/svg11.dtd"><svg t="1560483955504" class="icon" style="" viewBox="0 0 1024 1024" version="1.1" xmlns="http://www.w3.org/2000/svg" p-id="5004" xmlns:xlink="http://www.w3.org/1999/xlink" width="128" height="128"><defs><style type="text/css"></style></defs><path d="M198.912 886.976c0 5.824 0.896 11.328 2.624 16.768-93.888-15.264-163.968-45.312-163.968-90.624 0-129.824 74.464-241.984 182.4-294.72a248.576 248.576 0 0 0 130.816 42.24 423.936 423.936 0 0 0-151.872 326.336z m160.384-356.384c25.568 0 50.016-4.736 72.608-13.472a297.344 297.344 0 0 1-109.184-231.104c0-64.48 20.288-124.128 54.72-172.736a200.224 200.224 0 0 0-18.048-0.768c-113.632 0-205.728 93.568-205.728 209.024-0.032 115.456 92 209.056 205.632 209.056z m254.848 9.28c138.048 0 249.92-113.6 249.92-253.856 0-140.32-111.84-254.016-249.92-254.016s-249.92 113.76-249.92 254.016 111.872 253.856 249.92 253.856zM618.432 832a208 208 0 0 1 288-192 373.824 373.824 0 0 0-131.328-107.072 286.72 286.72 0 0 1-160.928 49.216 286.912 286.912 0 0 1-160.416-48.832c-124.672 60.96-210.784 190.528-210.784 340.48 0 90.272 240.48 128.416 447.936 115.776A207.36 207.36 0 0 1 618.432 832z m368 0.128c0 14.624-3.328 32.928-3.328 33.12-2.24 12.384-9.824 20.448-19.328 20.448h-1.536c-18.56 0-33.696 16-33.696 35.616 0 5.888 2.688 12.8 3.008 13.568a26.656 26.656 0 0 1-8.32 31.136l-0.928 0.64-39.072 22.88a25.024 25.024 0 0 1-10.72 2.464 25.76 25.76 0 0 1-19.2-8.672c-4.992-5.824-18.368-17.76-27.68-17.76-9.248 0-22.752 11.936-27.488 17.376a25.536 25.536 0 0 1-19.072 8.576 23.36 23.36 0 0 1-9.952-2.112l-38.624-22.752a26.944 26.944 0 0 1-9.12-31.872c0.736-1.952 2.944-8.32 2.944-13.44 0-19.616-15.136-35.616-33.76-35.616h-1.312c-9.696 0-17.248-8.064-19.488-20.512-0.32-1.888-3.328-19.136-3.328-33.056s3.008-31.136 3.328-33.056c2.24-12.448 9.824-20.448 19.264-20.448h1.632c18.56 0 33.696-16 33.696-35.616 0-5.952-2.688-12.8-3.008-13.568a26.656 26.656 0 0 1 8.32-31.136l0.928-0.672 40.128-23.264 0.736-0.32A22.016 22.016 0 0 1 781.12 672c7.2 0 14.304 3.136 19.008 8.384 4.928 5.44 18.048 16.672 27.136 16.672 8.928 0 22.016-11.072 26.88-16.384a25.92 25.92 0 0 1 18.88-8.192 23.36 23.36 0 0 1 9.952 2.112l39.36 23.072c10.24 7.424 13.824 20.864 9.184 31.808a42.88 42.88 0 0 0-2.944 13.504c0 19.616 15.136 35.616 33.696 35.616h1.312c9.76 0 17.312 8 19.552 20.448 0.288 1.952 3.296 19.136 3.296 33.088z m-101.184-0.192c0-34.624-26.688-62.88-59.488-62.88s-59.488 28.256-59.488 62.88 26.688 62.88 59.488 62.88 59.488-28.256 59.488-62.88z m-59.488-30.496c-15.936 0-28.864 13.696-28.864 30.496s12.928 30.496 28.864 30.496c15.872 0 28.864-13.696 28.864-30.496s-12.992-30.496-28.864-30.496z"  p-id="5005"></path></svg>