<?xml version="1.0" standalone="no"?><!DOCTYPE svg PUBLIC "-//W3C//DTD SVG 1.1//EN" "http://www.w3.org/Graphics/SVG/1.1/DTD/svg11.dtd"><svg t="1558929952767" class="icon" style="" viewBox="0 0 1024 1024" version="1.1" xmlns="http://www.w3.org/2000/svg" p-id="3913" xmlns:xlink="http://www.w3.org/1999/xlink" width="128" height="128"><defs><style type="text/css"></style></defs><path d="M25.555023 1023.989778h204.438141V538.448427L25.555023 672.612298v351.37748z m57.496758-313.044945h102.222137v102.216004H83.051781v-102.216004zM0 589.554384l25.555023 44.723335 210.828941-146.939339-25.557067-38.332534zM511.417345 0l289.092733 289.092733-36.159335 36.157291L511.280371 72.06721 255.552276 327.74215l-36.163424-36.159336z" p-id="3914" ></path><path d="M274.716499 378.725443v645.264335H408.880371v-140.554672c0-57.496758 44.719246-102.213959 102.222137-102.213959 57.496758 0 102.222137 44.717202 102.222137 102.213959v140.554672h134.161827V378.725443L511.100463 129.563967 274.716499 378.725443zM498.322952 647.051142h-102.220093v-102.216004h102.220093v102.216004z m0-140.554672h-102.220093v-102.213959h102.220093v102.213959z m44.719246-102.213959h102.222137v102.213959h-102.222137v-102.213959z m0 140.552627h102.222137v102.216004h-102.222137v-102.216004zM792.203674 1023.989778H996.645903V672.606165l-204.442229-140.548538v491.932151z m44.725379-319.435745h102.220093v102.216004h-102.220093v-102.216004zM811.371985 442.613001l-25.555023 38.334579 210.826897 146.939339L1022.200926 583.163584z" p-id="3915"></path></svg>