<?xml version="1.0" standalone="no"?><!DOCTYPE svg PUBLIC "-//W3C//DTD SVG 1.1//EN" "http://www.w3.org/Graphics/SVG/1.1/DTD/svg11.dtd"><svg t="1564543335504" class="icon" viewBox="0 0 1024 1024" version="1.1" xmlns="http://www.w3.org/2000/svg" p-id="19510" width="128" height="128" xmlns:xlink="http://www.w3.org/1999/xlink"><defs><style type="text/css"></style></defs><path d="M341.333333 113.777778h568.888889v113.777778H341.333333zM113.777778 113.777778h113.777778v113.777778H113.777778zM341.333333 341.333333h568.888889v113.777778H341.333333zM113.777778 341.333333h113.777778v113.777778H113.777778zM341.333333 568.888889h568.888889v113.777778H341.333333zM113.777778 568.888889h113.777778v113.777778H113.777778zM341.333333 796.444444h568.888889v113.777778H341.333333zM113.777778 796.444444h113.777778v113.777778H113.777778z" p-id="19511"></path><path d="M881.777778 1024h-739.555556C62.577778 1024 0 961.422222 0 881.777778v-739.555556C0 62.577778 62.577778 0 142.222222 0h739.555556C961.422222 0 1024 62.577778 1024 142.222222v739.555556c0 79.644444-62.577778 142.222222-142.222222 142.222222zM142.222222 56.888889C96.711111 56.888889 56.888889 96.711111 56.888889 142.222222v739.555556c0 45.511111 39.822222 85.333333 85.333333 85.333333h739.555556c45.511111 0 85.333333-39.822222 85.333333-85.333333v-739.555556c0-45.511111-39.822222-85.333333-85.333333-85.333333h-739.555556z" p-id="19512"></path></svg>