<?xml version="1.0" standalone="no"?><!DOCTYPE svg PUBLIC "-//W3C//DTD SVG 1.1//EN" "http://www.w3.org/Graphics/SVG/1.1/DTD/svg11.dtd"><svg t="1558930299127" class="icon" style="" viewBox="0 0 1024 1024" version="1.1" xmlns="http://www.w3.org/2000/svg" p-id="5390" xmlns:xlink="http://www.w3.org/1999/xlink" width="128" height="128"><defs><style type="text/css"></style></defs><path d="M782.27968 474.28608c26.38848-25.78432 41.3184-60.672 41.58976-97.12128 0-79.88224-71.7312-144.82432-159.91808-144.82432-2.64192 0-5.08928 0.5888-7.71072 0.71168 2.48832 3.26144 4.86912 6.58944 7.1424 9.99424a167.0656 167.0656 0 0 1 29.89056 51.72224c38.5024 11.23328 80.62976 43.7504 80.62976 82.37056 0 34.06848-22.1184 65.00352-56.30976 79.06816-12.7488 4.35712-21.61152 14.68416-21.61152 26.76224 0 12.07296 9.55904 23.15264 22.97856 27.22816l6.36928 1.36704c85.27872 19.4816 144.65024 88.16128 144.65024 168.23296v22.49728H824.32a205.14816 205.14816 0 0 1 6.36928 51.25632h57.35936c17.69984 0 31.88224-12.94848 31.88224-28.96896v-44.8512c0-88.27904-54.19008-166.42048-137.49248-205.44h-0.15872z m-478.45376 37.34016l6.3744-1.37216c13.42464-4.07552 22.98368-14.72 22.98368-27.264 0-12.53376-8.96512-22.43072-21.61152-26.78784-34.23232-14.06976-56.30976-44.96384-56.30976-79.04256-0.03072-38.58944 36.83328-71.10656 75.31008-82.37056a168.07424 168.07424 0 0 1 29.9264-51.72224c2.24256-3.39968 4.62336-6.72768 7.1424-9.98912-2.59072 0-5.0432-0.7168-7.72608-0.7168-88.1408 0-159.91296 64.91648-159.91296 144.79872 0.27136 36.44928 15.21152 71.33696 41.58976 97.12128-83.33312 39.01952-137.51296 117.0944-137.51296 205.44v44.77952c0 16.03072 14.34112 28.9792 31.872 28.9792h57.3696a205.7216 205.7216 0 0 1 6.36928-51.23072h-40.38144v-22.5024c0-80 59.50464-148.64384 144.65536-168.15616l-0.13824 0.03584z m316.84608-22.2464c42.55232-33.14688 67.27168-83.43552 67.15904-136.576 0.11776-95.96928-78.34112-173.76768-174.78144-173.76768-96.4352 0-174.86336 77.7984-174.86336 173.74208-0.0768 53.13024 24.64256 103.3984 67.1488 136.576-111.47776 44.83072-184.11008 151.07072-183.76192 268.8v57.88672c-0.13824 15.83616 12.89216 28.78464 29.10208 28.93312h524.75392c16.2304-0.128 29.2608-13.09184 29.12768-28.93312V758.15424c0.36864-117.72928-72.2688-223.9744-183.75168-268.8l-0.13312 0.0256z" p-id="5391"></path></svg>